<?xml version="1.0" standalone="no"?>
<!DOCTYPE svg PUBLIC "-//W3C//DTD SVG 20010904//EN"
 "http://www.w3.org/TR/2001/REC-SVG-20010904/DTD/svg10.dtd">
<svg version="1.0" xmlns="http://www.w3.org/2000/svg"
 width="512.000000pt" height="512.000000pt" viewBox="0 0 512.000000 512.000000"
 preserveAspectRatio="xMidYMid meet">

<g transform="translate(0.000000,512.000000) scale(0.100000,-0.100000)"
fill="#000000" stroke="none">
<path d="M531 3877 l-93 -82 -77 -155 c-170 -343 -251 -690 -251 -1075 0 -547
163 -1043 483 -1470 390 -521 944 -854 1602 -962 158 -26 606 -26 750 1 547
99 1000 336 1370 717 453 467 695 1058 695 1700 0 253 -29 467 -95 694 -23 78
-101 292 -111 304 -2 2 -12 -3 -22 -12 -13 -12 -36 -17 -75 -17 -31 0 -57 3
-57 6 0 4 23 32 50 64 47 55 61 80 41 80 -4 0 -44 -31 -89 -70 -71 -61 -86
-70 -121 -70 -77 0 -77 5 5 101 41 49 70 89 64 89 -6 0 -59 -41 -116 -91
l-105 -91 -55 7 -54 6 76 90 c41 49 70 89 64 89 -25 0 -129 -103 -155 -153
-67 -128 -232 -583 -324 -895 -147 -497 -264 -1055 -326 -1552 -9 -69 -20
-159 -25 -200 -5 -41 -13 -110 -16 -152 l-7 -78 -128 0 c-97 0 -129 3 -129 13
0 6 7 71 15 142 8 72 15 135 15 142 0 7 -19 17 -42 23 -167 42 -473 163 -641
253 l-97 52 -173 -85 c-175 -86 -326 -146 -494 -197 -65 -19 -93 -32 -93 -43
0 -8 7 -73 15 -145 8 -71 15 -136 15 -142 0 -10 -32 -13 -129 -13 l-128 0 -7
78 c-58 656 -229 1491 -432 2114 -86 265 -219 615 -255 674 -36 58 -21 101 54
155 l40 29 -47 0 -48 0 81 95 c45 52 77 95 71 95 -7 0 -58 -40 -115 -90 l-103
-90 -62 0 -62 0 82 95 c45 52 76 95 70 95 -6 0 -58 -40 -115 -90 l-103 -90
-62 0 -62 0 82 95 c45 52 76 95 68 94 -7 0 -55 -37 -107 -82z m420 -1203 c12
-13 30 -24 40 -24 10 0 21 -4 24 -10 3 -5 -3 -10 -15 -10 -28 0 -80 -52 -80
-82 -1 -19 -4 -16 -21 17 -20 40 -37 55 -74 66 -17 4 -15 8 17 23 26 12 43 30
55 58 l18 39 7 -27 c4 -14 17 -37 29 -50z m3235 -33 c15 -12 34 -21 43 -22 10
0 6 -5 -11 -12 -39 -18 -65 -45 -73 -75 l-7 -27 -13 31 c-14 34 -59 74 -84 74
-9 0 3 9 26 19 31 15 44 28 54 56 l14 37 12 -30 c7 -16 24 -39 39 -51z m-3686
-445 c23 -20 54 -39 71 -43 43 -8 44 -20 3 -28 -48 -9 -118 -79 -131 -131
l-10 -39 -10 37 c-22 74 -72 121 -148 138 l-30 7 43 12 c59 16 108 63 129 122
l18 48 12 -43 c8 -28 27 -56 53 -80z m4155 1 c21 -33 92 -77 126 -77 17 -1 10
-6 -25 -20 -65 -25 -113 -74 -131 -130 -7 -25 -14 -37 -14 -27 -1 30 -38 93
-71 120 -17 15 -49 32 -71 39 l-41 12 46 13 c60 18 113 71 128 129 l12 44 11
-38 c7 -20 20 -50 30 -65z m-3493 -257 c15 -16 42 -32 60 -35 l32 -7 -39 -14
c-48 -16 -73 -41 -89 -88 l-13 -37 -12 40 c-13 44 -50 79 -94 88 l-28 6 39 17
c43 19 79 59 89 99 7 26 7 26 17 -7 5 -19 22 -47 38 -62z m2828 -32 c17 -16
43 -28 58 -29 26 -1 26 -1 -8 -16 -48 -20 -88 -60 -96 -96 l-6 -30 -15 34
c-19 47 -49 76 -91 90 l-35 12 37 12 c50 18 74 41 88 87 l11 39 13 -38 c7 -21
27 -50 44 -65z"/>
<path d="M1155 3892 c-22 -21 -62 -56 -90 -80 l-50 -42 47 16 c35 12 60 31 98
74 58 67 54 86 -5 32z"/>
<path d="M1350 3885 c-17 -18 -20 -25 -8 -25 8 0 25 11 38 25 17 18 20 25 8
25 -8 0 -25 -11 -38 -25z"/>
<path d="M2363 3793 l-53 -4 0 -60 c0 -60 0 -61 -70 -144 -38 -46 -70 -89 -70
-95 0 -6 32 15 71 46 l71 56 -4 -70 -3 -69 134 -6 c277 -11 837 18 1116 59
187 27 420 80 470 107 18 9 16 11 -20 24 -144 50 -434 102 -706 128 -285 26
-755 40 -936 28z"/>
<path d="M2207 3746 c-55 -67 -45 -72 28 -15 36 28 65 53 65 55 0 2 -13 4 -28
4 -21 0 -37 -11 -65 -44z"/>
<path d="M4205 3739 c-10 -15 3 -25 16 -12 7 7 7 13 1 17 -6 3 -14 1 -17 -5z"/>
<path d="M1235 3363 c24 -55 177 -519 210 -635 21 -76 43 -138 49 -138 20 1
172 66 233 101 l61 34 -59 105 c-70 125 -138 276 -189 420 l-38 105 -68 12
c-38 6 -100 12 -138 12 -61 1 -67 -1 -61 -16z"/>
<path d="M3671 3364 c-41 -8 -78 -17 -81 -21 -4 -5 -22 -51 -39 -103 -42 -122
-117 -288 -186 -410 -30 -54 -55 -101 -55 -104 0 -19 308 -153 320 -139 4 4
29 82 55 173 39 135 171 534 200 603 6 15 0 17 -66 16 -41 -1 -107 -8 -148
-15z"/>
<path d="M1625 3318 c32 -110 136 -340 212 -471 l40 -68 64 48 c35 26 103 85
150 131 l86 82 -63 128 -64 127 -180 16 c-99 9 -196 20 -216 23 -34 7 -35 6
-29 -16z"/>
<path d="M3335 3320 c-33 -5 -112 -11 -175 -15 l-115 -7 -64 -130 -64 -130 49
-49 c47 -48 137 -124 216 -183 l37 -27 41 73 c63 113 134 263 174 370 20 53
36 100 36 103 0 7 -59 4 -135 -5z"/>
<path d="M2184 3258 c25 -61 60 -128 65 -128 7 0 111 145 111 154 0 3 -43 6
-95 6 l-95 0 14 -32z"/>
<path d="M2753 3282 c-9 -6 0 -26 32 -74 24 -37 49 -69 54 -72 8 -6 81 127 81
148 0 9 -153 7 -167 -2z"/>
<path d="M2417 3183 c-37 -54 -77 -110 -89 -125 l-21 -26 23 -39 c26 -43 144
-200 189 -251 l28 -33 65 78 c81 98 168 222 168 240 0 8 -22 42 -49 77 -27 35
-64 89 -82 120 l-34 55 -66 1 -65 0 -67 -97z"/>
<path d="M2160 2878 c-41 -38 -110 -95 -153 -128 l-77 -58 90 -118 c49 -66
104 -136 122 -156 l33 -37 65 50 c80 60 228 191 229 202 1 5 -26 40 -59 79
-32 39 -86 108 -118 153 l-58 82 -74 -69z"/>
<path d="M2804 2869 c-32 -45 -87 -116 -122 -158 l-64 -76 68 -64 c77 -72 218
-181 233 -181 23 0 249 297 235 309 -5 4 -36 27 -69 52 -33 24 -96 79 -141
122 l-82 78 -58 -82z"/>
<path d="M1750 2589 c-52 -26 -127 -60 -166 -75 l-71 -28 12 -48 c18 -65 184
-297 208 -290 36 10 165 71 254 120 l101 56 -62 75 c-35 42 -90 112 -122 157
l-59 81 -95 -48z"/>
<path d="M3187 2551 c-35 -48 -90 -117 -121 -155 -54 -64 -57 -68 -39 -82 32
-25 315 -164 334 -164 29 0 246 297 236 323 -2 7 -29 20 -59 30 -31 9 -108 43
-172 76 l-116 58 -63 -86z"/>
<path d="M2485 2503 c-33 -30 -98 -85 -145 -121 -47 -36 -87 -68 -90 -70 -7
-6 166 -170 238 -225 l61 -47 88 74 c48 41 117 100 152 133 l64 58 -75 57
c-41 31 -101 80 -134 109 -108 98 -91 95 -159 32z"/>
<path d="M2084 2206 c-39 -23 -119 -64 -177 -91 -59 -28 -107 -53 -107 -56 0
-12 273 -278 292 -285 20 -6 143 58 288 150 l81 52 -58 49 c-32 27 -101 88
-153 136 l-95 87 -71 -42z"/>
<path d="M2895 2209 c-22 -23 -87 -82 -145 -132 -58 -50 -105 -95 -105 -100 0
-12 195 -134 283 -176 l71 -34 68 60 c79 71 223 219 223 230 0 5 -53 34 -118
65 -64 31 -143 72 -176 92 -32 20 -59 36 -60 36 -1 0 -20 -19 -41 -41z"/>
<path d="M3502 2146 c-27 -39 -27 -46 -3 -46 13 0 20 10 24 37 4 20 5 38 4 39
-1 2 -12 -12 -25 -30z"/>
<path d="M1600 2116 c0 -9 5 -16 10 -16 6 0 10 4 10 9 0 6 -4 13 -10 16 -5 3
-10 -1 -10 -9z"/>
<path d="M1653 2010 c-13 -5 -23 -12 -23 -16 0 -3 16 -90 36 -194 l37 -188 36
10 c32 9 241 87 249 93 5 4 -297 305 -306 304 -4 0 -17 -4 -29 -9z"/>
<path d="M3249 1868 l-146 -149 26 -13 c14 -8 85 -34 157 -59 l130 -45 33 171
c18 95 35 184 38 198 4 22 0 27 -35 37 -22 7 -43 11 -48 11 -5 -1 -75 -69
-155 -151z"/>
<path d="M2439 1845 c-53 -36 -132 -84 -177 -108 l-82 -44 92 -67 c51 -37 134
-94 184 -126 l92 -59 90 59 c49 31 131 88 181 125 l92 67 -98 55 c-54 31 -135
80 -180 109 -44 30 -85 54 -90 53 -4 0 -51 -29 -104 -64z"/>
<path d="M2000 1611 c-36 -15 -110 -43 -165 -61 -55 -19 -104 -37 -108 -40 -7
-6 41 -377 49 -389 6 -7 127 30 264 81 132 49 400 171 400 182 0 3 -42 33 -92
67 -51 34 -130 91 -176 126 -45 34 -88 63 -95 63 -6 -1 -41 -13 -77 -29z"/>
<path d="M2909 1568 c-52 -40 -132 -97 -177 -127 l-83 -54 39 -22 c69 -39 255
-122 367 -163 118 -44 285 -96 289 -90 3 4 50 347 50 371 1 15 -25 28 -134 66
-74 26 -157 57 -184 69 -27 12 -54 22 -60 22 -6 0 -54 -33 -107 -72z"/>
</g>
</svg>
